<svg version='1.1' baseProfile='full' xmlns='http://www.w3.org/2000/svg' width='1574.478919656456' height='95.6279711465438'><g transform='translate(5, 5)'><g transform='scale(0.6253069549724787) translate(49.9375, -50)'><g><g><polyline points="10,100 52,100 94,100 " style="fill: none; stroke: black;"></polyline><g transform="translate(50, 105)"><text text-anchor="start" y="3" transform="rotate(90)" font-size="12">32x32</text></g></g><g transform="translate(-44, 105)"><text text-anchor="start" y="3" transform="rotate(90)" font-size="12">32x32</text></g></g><g><g><polyline points="104,100 146,100 188,100 " style="fill: none; stroke: black;"></polyline><g transform="translate(144, 105)"><text text-anchor="start" y="3" transform="rotate(90)" font-size="12">32x32</text></g></g></g><g><g><polyline points="198,100 240,100 282,100 " style="fill: none; stroke: black;"></polyline><g transform="translate(238, 105)"><text text-anchor="start" y="3" transform="rotate(90)" font-size="12">32x32</text></g></g></g><g><g><polyline points="292,100 334,100 376,100 " style="fill: none; stroke: black;"></polyline><g transform="translate(332, 105)"><text text-anchor="start" y="3" transform="rotate(90)" font-size="12">32x32</text></g></g></g><g><g><polyline points="386,100 428,100 470,100 " style="fill: none; stroke: black;"></polyline><g transform="translate(426, 105)"><text text-anchor="start" y="3" transform="rotate(90)" font-size="12">16x16</text></g></g></g><g><g><polyline points="480,100 522,100 564,100 " style="fill: none; stroke: black;"></polyline><g transform="translate(520, 105)"><text text-anchor="start" y="3" transform="rotate(90)" font-size="12">16x16</text></g></g></g><g><g><polyline points="577.3333333333333,100 619.3333333333334,100 661.3333333333334,100 " style="fill: none; stroke: black;"></polyline><g transform="translate(617.3333333333333, 105)"><text text-anchor="start" y="3" transform="rotate(90)" font-size="12">16x16</text></g></g></g><g><g><polyline points="674.6666666666666,100 716.6666666666667,100 758.6666666666667,100 " style="fill: none; stroke: black;"></polyline><g transform="translate(714.6666666666666, 105)"><text text-anchor="start" y="3" transform="rotate(90)" font-size="12">16x16</text></g></g></g><g><g><polyline points="772,100 814.0000000000001,100 856.0000000000001,100 " style="fill: none; stroke: black;"></polyline><g transform="translate(812, 105)"><text text-anchor="start" y="3" transform="rotate(90)" font-size="12">16x16</text></g></g></g><g><g><polyline points="869.3333333333334,100 911.3333333333335,100 953.3333333333335,100 " style="fill: none; stroke: black;"></polyline><g transform="translate(909.3333333333334, 105)"><text text-anchor="start" y="3" transform="rotate(90)" font-size="12">16x16</text></g></g></g><g><g><polyline points="966.6666666666667,100 1008.6666666666669,100 1050.666666666667,100 " style="fill: none; stroke: black;"></polyline><g transform="translate(1006.6666666666667, 105)"><text text-anchor="start" y="3" transform="rotate(90)" font-size="12">8x8</text></g></g></g><g><g><polyline points="1064.0000000000005,100 1106.0000000000002,100 1148.0000000000002,100 " style="fill: none; stroke: black;"></polyline><g transform="translate(1104.0000000000005, 105)"><text text-anchor="start" y="3" transform="rotate(90)" font-size="12">8x8</text></g></g></g><g><g><polyline points="1168.0000000000002,100 1210.0000000000002,100 1252.0000000000002,100 " style="fill: none; stroke: black;"></polyline><g transform="translate(1208.0000000000002, 105)"><text text-anchor="start" y="3" transform="rotate(90)" font-size="12">8x8</text></g></g></g><g><g><polyline points="1272.0000000000002,100 1314.0000000000002,100 1356.0000000000002,100 " style="fill: none; stroke: black;"></polyline><g transform="translate(1312.0000000000002, 105)"><text text-anchor="start" y="3" transform="rotate(90)" font-size="12">8x8</text></g></g></g><g><g><polyline points="1376.0000000000002,100 1418.0000000000002,100 1460.0000000000002,100 " style="fill: none; stroke: black;"></polyline><g transform="translate(1416.0000000000002, 105)"><text text-anchor="start" y="3" transform="rotate(90)" font-size="12">8x8</text></g></g></g><g><g><polyline points="1480.0000000000002,100 1522.0000000000002,100 1564.0000000000002,100 " style="fill: none; stroke: black;"></polyline><g transform="translate(1520.0000000000002, 105)"><text text-anchor="start" y="3" transform="rotate(90)" font-size="12">8x8</text></g></g></g><g><g><polyline points="1584.0000000000002,100 1626.0000000000002,100 1668.0000000000002,100 " style="fill: none; stroke: black;"></polyline><g transform="translate(1624.0000000000002, 105)"><text text-anchor="start" y="3" transform="rotate(90)" font-size="12">4x4</text></g></g></g><g><g><polyline points="1688.0000000000002,100 1730.0000000000002,100 1772.0000000000002,100 " style="fill: none; stroke: black;"></polyline><g transform="translate(1728.0000000000002, 105)"><text text-anchor="start" y="3" transform="rotate(90)" font-size="12">4x4</text></g></g></g><g><g><polyline points="1782.0000000000002,100 1824.0000000000002,100 1866.0000000000002,100 " style="fill: none; stroke: black;"></polyline></g></g><g><g><polyline points="1876.0000000000002,100 1918.0000000000002,100 1960.0000000000002,100 " style="fill: none; stroke: black;"></polyline></g></g><g><g><polyline points="1970.0000000000002,100 2012.0000000000002,100 2054,100 " style="fill: none; stroke: black;"></polyline></g></g><g><g><polyline points="2064,100 2106,100 2148,100 " style="fill: none; stroke: black;"></polyline></g></g><g><g><polyline points="2158,100 2200,100 2242,100 " style="fill: none; stroke: black;"></polyline></g></g><g><g><polyline points="2252,100 2294,100 2336,100 " style="fill: none; stroke: black;"></polyline></g></g><g><g><polyline points="2346,100 2388,100 2430,100 " style="fill: none; stroke: black;"></polyline></g></g><g></g><g><g transform="translate(0, 50)"><path d="M 0 0 L 10 0 V 100 L 0 100 V 0 z" style="fill: rgb(0, 0, 0); stroke: rgb(0, 0, 0); stroke-width: 4; stroke-linejoin: round;"></path><g></g><text text-anchor="middle" x="5" y="117" font-size="12">64</text><text text-anchor="middle" x="5" y="134" font-size="12">Conv2D</text></g></g><g><g transform="translate(94, 50)"><path d="M 0 0 L 10 0 V 100 L 0 100 V 0 z" style="fill: rgb(230, 159, 0); stroke: rgb(179, 124, 0); stroke-width: 4; stroke-linejoin: round;"></path><g></g><text text-anchor="middle" x="5" y="117" font-size="12">64</text><text text-anchor="middle" x="5" y="134" font-size="12">BatchNormalization</text></g></g><g><g transform="translate(188, 50)"><path d="M 0 0 L 10 0 V 100 L 0 100 V 0 z" style="fill: rgb(0, 0, 0); stroke: rgb(0, 0, 0); stroke-width: 4; stroke-linejoin: round;"></path><g></g><text text-anchor="middle" x="5" y="117" font-size="12">64</text><text text-anchor="middle" x="5" y="134" font-size="12">Conv2D</text></g></g><g><g transform="translate(282, 50)"><path d="M 0 0 L 10 0 V 100 L 0 100 V 0 z" style="fill: rgb(230, 159, 0); stroke: rgb(179, 124, 0); stroke-width: 4; stroke-linejoin: round;"></path><g></g><text text-anchor="middle" x="5" y="117" font-size="12">64</text><text text-anchor="middle" x="5" y="134" font-size="12">BatchNormalization</text></g></g><g><g transform="translate(376, 50)"><path d="M 0 0 L 10 20 V 80 L 0 100 V 0 z" style="fill: rgb(86, 180, 233); stroke: rgb(41, 160, 227); stroke-width: 4; stroke-linejoin: round;"></path><g></g><text text-anchor="middle" x="5" y="117" font-size="12">64</text><text text-anchor="middle" x="5" y="134" font-size="12">MaxPooling2D</text></g></g><g><g transform="translate(470, 50)"><path d="M 0 20 L 10 20 V 80 L 0 80 V 20 z" style="fill: rgb(0, 158, 115); stroke: rgb(0, 107, 78); stroke-width: 4; stroke-linejoin: round;"></path><g></g><text text-anchor="middle" x="5" y="97" font-size="12">64</text><text text-anchor="middle" x="5" y="114" font-size="12">Dropout</text></g></g><g><g transform="translate(564, 50)"><path d="M 0 20 L 13.333333333333332 20 V 80 L 0 80 V 20 z" style="fill: rgb(0, 0, 0); stroke: rgb(0, 0, 0); stroke-width: 4; stroke-linejoin: round;"></path><g></g><text text-anchor="middle" x="6.666666666666666" y="97" font-size="12">128</text><text text-anchor="middle" x="6.666666666666666" y="114" font-size="12">Conv2D</text></g></g><g><g transform="translate(661.3333333333334, 50)"><path d="M 0 20 L 13.333333333333332 20 V 80 L 0 80 V 20 z" style="fill: rgb(230, 159, 0); stroke: rgb(179, 124, 0); stroke-width: 4; stroke-linejoin: round;"></path><g></g><text text-anchor="middle" x="6.666666666666666" y="97" font-size="12">128</text><text text-anchor="middle" x="6.666666666666666" y="114" font-size="12">BatchNormalization</text></g></g><g><g transform="translate(758.6666666666667, 50)"><path d="M 0 20 L 13.333333333333332 20 V 80 L 0 80 V 20 z" style="fill: rgb(0, 0, 0); stroke: rgb(0, 0, 0); stroke-width: 4; stroke-linejoin: round;"></path><g></g><text text-anchor="middle" x="6.666666666666666" y="97" font-size="12">128</text><text text-anchor="middle" x="6.666666666666666" y="114" font-size="12">Conv2D</text></g></g><g><g transform="translate(856.0000000000001, 50)"><path d="M 0 20 L 13.333333333333332 20 V 80 L 0 80 V 20 z" style="fill: rgb(230, 159, 0); stroke: rgb(179, 124, 0); stroke-width: 4; stroke-linejoin: round;"></path><g></g><text text-anchor="middle" x="6.666666666666666" y="97" font-size="12">128</text><text text-anchor="middle" x="6.666666666666666" y="114" font-size="12">BatchNormalization</text></g></g><g><g transform="translate(953.3333333333335, 50)"><path d="M 0 20 L 13.333333333333332 30 V 70 L 0 80 V 20 z" style="fill: rgb(86, 180, 233); stroke: rgb(41, 160, 227); stroke-width: 4; stroke-linejoin: round;"></path><g></g><text text-anchor="middle" x="6.666666666666666" y="97" font-size="12">128</text><text text-anchor="middle" x="6.666666666666666" y="114" font-size="12">MaxPooling2D</text></g></g><g><g transform="translate(1050.666666666667, 50)"><path d="M 0 30 L 13.333333333333332 30 V 70 L 0 70 V 30 z" style="fill: rgb(0, 158, 115); stroke: rgb(0, 107, 78); stroke-width: 4; stroke-linejoin: round;"></path><g></g><text text-anchor="middle" x="6.666666666666666" y="87" font-size="12">128</text><text text-anchor="middle" x="6.666666666666666" y="104" font-size="12">Dropout</text></g></g><g><g transform="translate(1148.0000000000002, 50)"><path d="M 0 30 L 20 30 V 70 L 0 70 V 30 z" style="fill: rgb(0, 0, 0); stroke: rgb(0, 0, 0); stroke-width: 4; stroke-linejoin: round;"></path><g></g><text text-anchor="middle" x="10" y="87" font-size="12">256</text><text text-anchor="middle" x="10" y="104" font-size="12">Conv2D</text></g></g><g><g transform="translate(1252.0000000000002, 50)"><path d="M 0 30 L 20 30 V 70 L 0 70 V 30 z" style="fill: rgb(230, 159, 0); stroke: rgb(179, 124, 0); stroke-width: 4; stroke-linejoin: round;"></path><g></g><text text-anchor="middle" x="10" y="87" font-size="12">256</text><text text-anchor="middle" x="10" y="104" font-size="12">BatchNormalization</text></g></g><g><g transform="translate(1356.0000000000002, 50)"><path d="M 0 30 L 20 30 V 70 L 0 70 V 30 z" style="fill: rgb(0, 0, 0); stroke: rgb(0, 0, 0); stroke-width: 4; stroke-linejoin: round;"></path><g></g><text text-anchor="middle" x="10" y="87" font-size="12">256</text><text text-anchor="middle" x="10" y="104" font-size="12">Conv2D</text></g></g><g><g transform="translate(1460.0000000000002, 50)"><path d="M 0 30 L 20 30 V 70 L 0 70 V 30 z" style="fill: rgb(230, 159, 0); stroke: rgb(179, 124, 0); stroke-width: 4; stroke-linejoin: round;"></path><g></g><text text-anchor="middle" x="10" y="87" font-size="12">256</text><text text-anchor="middle" x="10" y="104" font-size="12">BatchNormalization</text></g></g><g><g transform="translate(1564.0000000000002, 50)"><path d="M 0 30 L 20 35 V 65 L 0 70 V 30 z" style="fill: rgb(86, 180, 233); stroke: rgb(41, 160, 227); stroke-width: 4; stroke-linejoin: round;"></path><g></g><text text-anchor="middle" x="10" y="87" font-size="12">256</text><text text-anchor="middle" x="10" y="104" font-size="12">MaxPooling2D</text></g></g><g><g transform="translate(1668.0000000000002, 50)"><path d="M 0 35 L 20 35 V 65 L 0 65 V 35 z" style="fill: rgb(0, 158, 115); stroke: rgb(0, 107, 78); stroke-width: 4; stroke-linejoin: round;"></path><g></g><text text-anchor="middle" x="10" y="82" font-size="12">256</text><text text-anchor="middle" x="10" y="99" font-size="12">Dropout</text></g></g><g><g transform="translate(1772.0000000000002, 50)"><path d="M 0 0 L 10 0 V 100 L 0 100 V 0 z" style="fill: rgb(240, 228, 66); stroke: rgb(240, 228, 66); stroke-width: 4; stroke-linejoin: round;"></path><g></g><text text-anchor="middle" x="5" y="117" font-size="12">4096</text><text text-anchor="middle" x="5" y="134" font-size="12">Flatten</text></g></g><g><g transform="translate(1866.0000000000002, 50)"><path d="M 0 0 L 10 0 V 100 L 0 100 V 0 z" style="fill: rgb(204, 121, 167); stroke: rgb(204, 121, 167); stroke-width: 4; stroke-linejoin: round;"></path><g></g><text text-anchor="middle" x="5" y="117" font-size="12">512</text><text text-anchor="middle" x="5" y="134" font-size="12">Dense</text></g></g><g><g transform="translate(1960.0000000000002, 50)"><path d="M 0 0 L 10 0 V 100 L 0 100 V 0 z" style="fill: rgb(230, 159, 0); stroke: rgb(230, 159, 0); stroke-width: 4; stroke-linejoin: round;"></path><g></g><text text-anchor="middle" x="5" y="117" font-size="12">512</text><text text-anchor="middle" x="5" y="134" font-size="12">BatchNormalization</text></g></g><g><g transform="translate(2054, 50)"><path d="M 0 0 L 10 0 V 100 L 0 100 V 0 z" style="fill: rgb(0, 158, 115); stroke: rgb(0, 158, 115); stroke-width: 4; stroke-linejoin: round;"></path><g></g><text text-anchor="middle" x="5" y="117" font-size="12">512</text><text text-anchor="middle" x="5" y="134" font-size="12">Dropout</text></g></g><g><g transform="translate(2148, 50)"><path d="M 0 17.84860557768924 L 10 17.84860557768924 V 82.15139442231076 L 0 82.15139442231076 V 17.84860557768924 z" style="fill: rgb(204, 121, 167); stroke: rgb(204, 121, 167); stroke-width: 4; stroke-linejoin: round;"></path><g></g><text text-anchor="middle" x="5" y="99.15139442231076" font-size="12">256</text><text text-anchor="middle" x="5" y="116.15139442231076" font-size="12">Dense</text></g></g><g><g transform="translate(2242, 50)"><path d="M 0 17.84860557768924 L 10 17.84860557768924 V 82.15139442231076 L 0 82.15139442231076 V 17.84860557768924 z" style="fill: rgb(230, 159, 0); stroke: rgb(230, 159, 0); stroke-width: 4; stroke-linejoin: round;"></path><g></g><text text-anchor="middle" x="5" y="99.15139442231076" font-size="12">256</text><text text-anchor="middle" x="5" y="116.15139442231076" font-size="12">BatchNormalization</text></g></g><g><g transform="translate(2336, 50)"><path d="M 0 17.84860557768924 L 10 17.84860557768924 V 82.15139442231076 L 0 82.15139442231076 V 17.84860557768924 z" style="fill: rgb(0, 158, 115); stroke: rgb(0, 158, 115); stroke-width: 4; stroke-linejoin: round;"></path><g></g><text text-anchor="middle" x="5" y="99.15139442231076" font-size="12">256</text><text text-anchor="middle" x="5" y="116.15139442231076" font-size="12">Dropout</text></g></g><g><g transform="translate(2430, 50)"><path d="M 0 35 L 10 35 V 65 L 0 65 V 35 z" style="fill: rgb(204, 121, 167); stroke: rgb(204, 121, 167); stroke-width: 4; stroke-linejoin: round;"></path><g></g><text text-anchor="middle" x="5" y="82" font-size="12">10</text><text text-anchor="middle" x="5" y="99" font-size="12">Dense</text></g></g></g></g></svg>