<svg version='1.1' baseProfile='full' xmlns='http://www.w3.org/2000/svg' width='32799.27985638064' height='1432.297474603525'><pattern id="muster1" x="0" y="0" width="8" height="8" patternUnits="userSpaceOnUse"><path d="M0 0L8 8ZM8 0L0 8Z" stroke-width="0.5" stroke="black"></path></pattern><pattern id="muster2" x="10" y="10" width="20" height="20" patternUnits="userSpaceOnUse"><rect width="10" height="10"></rect><rect x="10" y="10" width="10" height="10"></rect></pattern><pattern id="muster3" x="0" y="0" width="10" height="10" patternUnits="userSpaceOnUse"><circle cx="5" cy="5" r="5"></circle></pattern><pattern id="muster4" x="10" y="10" width="10" height="10" patternTransform="scale(1,2) rotate(45)" patternUnits="userSpaceOnUse"><rect width="5" height="5"></rect><rect x="5" y="5" width="5" height="5"></rect></pattern><pattern id="muster5" x="10" y="10" width="20" height="20" patternUnits="userSpaceOnUse"><circle cx="10" cy="10" r="5"></circle></pattern><pattern id="muster6" x="0" y="0" width="10" height="10" patternUnits="userSpaceOnUse"><path d="M-1,1 l2,-2 M0,10 l10,-10 M9,11 l2,-2" stroke="black" stroke-width="1"></path></pattern><pattern id="muster7" x="0" y="0" width="10" height="10" patternUnits="userSpaceOnUse"><path d="M-1,1 l2,-2 M0,10 l10,-10 M9,11 l2,-2" stroke="black" stroke-width="8"></path></pattern><pattern id="muster8" x="0" y="0" width="10" height="10" patternUnits="userSpaceOnUse"><path d="M-1,1 l2,-2 M0,10 l10,-10 M9,11 l2,-2" stroke="black" stroke-width="3"></path></pattern><pattern id="muster9" x="0" y="0" width="10" height="10" patternUnits="userSpaceOnUse"><rect x="0" y="0" width="10" height="1"></rect></pattern><pattern id="muster10" x="0" y="0" width="10" height="10" patternUnits="userSpaceOnUse"><rect x="0" y="0" width="10" height="9"></rect></pattern><pattern id="muster11" x="0" y="0" width="10" height="10" patternUnits="userSpaceOnUse"><rect x="0" y="0" width="1" height="10"></rect></pattern><pattern id="muster12" x="0" y="0" width="10" height="10" patternUnits="userSpaceOnUse"><rect x="0" y="0" width="9" height="10"></rect></pattern><g transform='translate(5, 5)'><g transform='scale(10.386471745164947) translate(49.9375, -50)'><g><g><polyline points="20,100 62,100 104,100 " style="fill: none; stroke: black;"></polyline><g transform="translate(60, 105)"><text text-anchor="start" y="3" transform="rotate(90)" font-size="12">32x32</text></g></g><g transform="translate(-44, 105)"><text text-anchor="start" y="3" transform="rotate(90)" font-size="12">32x32</text></g></g><g><g><polyline points="124,100 166,100 208,100 " style="fill: none; stroke: black;"></polyline><g transform="translate(164, 105)"><text text-anchor="start" y="3" transform="rotate(90)" font-size="12">32x32</text></g></g></g><g><g><polyline points="228,100 270,100 312,100 " style="fill: none; stroke: black;"></polyline><g transform="translate(268, 105)"><text text-anchor="start" y="3" transform="rotate(90)" font-size="12">32x32</text></g></g></g><g><g><polyline points="332,100 374,100 416,100 " style="fill: none; stroke: black;"></polyline><g transform="translate(372, 105)"><text text-anchor="start" y="3" transform="rotate(90)" font-size="12">32x32</text></g></g></g><g><g><polyline points="436,100 478,100 520,100 " style="fill: none; stroke: black;"></polyline><g transform="translate(476, 105)"><text text-anchor="start" y="3" transform="rotate(90)" font-size="12">16x16</text></g></g></g><g><g><polyline points="540,100 582,100 624,100 " style="fill: none; stroke: black;"></polyline><g transform="translate(580, 105)"><text text-anchor="start" y="3" transform="rotate(90)" font-size="12">16x16</text></g></g></g><g><g><polyline points="664,100 706,100 748,100 " style="fill: none; stroke: black;"></polyline><g transform="translate(704, 105)"><text text-anchor="start" y="3" transform="rotate(90)" font-size="12">16x16</text></g></g></g><g><g><polyline points="788,100 830,100 872,100 " style="fill: none; stroke: black;"></polyline><g transform="translate(828, 105)"><text text-anchor="start" y="3" transform="rotate(90)" font-size="12">16x16</text></g></g></g><g><g><polyline points="912,100 954,100 996,100 " style="fill: none; stroke: black;"></polyline><g transform="translate(952, 105)"><text text-anchor="start" y="3" transform="rotate(90)" font-size="12">16x16</text></g></g></g><g><g><polyline points="1036,100 1078,100 1120,100 " style="fill: none; stroke: black;"></polyline><g transform="translate(1076, 105)"><text text-anchor="start" y="3" transform="rotate(90)" font-size="12">16x16</text></g></g></g><g><g><polyline points="1160,100 1202,100 1244,100 " style="fill: none; stroke: black;"></polyline><g transform="translate(1200, 105)"><text text-anchor="start" y="3" transform="rotate(90)" font-size="12">8x8</text></g></g></g><g><g><polyline points="1284,100 1326,100 1368,100 " style="fill: none; stroke: black;"></polyline><g transform="translate(1324, 105)"><text text-anchor="start" y="3" transform="rotate(90)" font-size="12">8x8</text></g></g></g><g><g><polyline points="1448,100 1490,100 1532,100 " style="fill: none; stroke: black;"></polyline><g transform="translate(1488, 105)"><text text-anchor="start" y="3" transform="rotate(90)" font-size="12">8x8</text></g></g></g><g><g><polyline points="1612,100 1654,100 1696,100 " style="fill: none; stroke: black;"></polyline><g transform="translate(1652, 105)"><text text-anchor="start" y="3" transform="rotate(90)" font-size="12">8x8</text></g></g></g><g><g><polyline points="1776,100 1818,100 1860,100 " style="fill: none; stroke: black;"></polyline><g transform="translate(1816, 105)"><text text-anchor="start" y="3" transform="rotate(90)" font-size="12">8x8</text></g></g></g><g><g><polyline points="1940,100 1982,100 2024,100 " style="fill: none; stroke: black;"></polyline><g transform="translate(1980, 105)"><text text-anchor="start" y="3" transform="rotate(90)" font-size="12">8x8</text></g></g></g><g><g><polyline points="2104,100 2146,100 2188,100 " style="fill: none; stroke: black;"></polyline><g transform="translate(2144, 105)"><text text-anchor="start" y="3" transform="rotate(90)" font-size="12">4x4</text></g></g></g><g><g><polyline points="2268,100 2310,100 2352,100 " style="fill: none; stroke: black;"></polyline><g transform="translate(2308, 105)"><text text-anchor="start" y="3" transform="rotate(90)" font-size="12">4x4</text></g></g></g><g><g><polyline points="2372,100 2414,100 2456,100 " style="fill: none; stroke: black;"></polyline></g></g><g><g><polyline points="2476,100 2518,100 2560,100 " style="fill: none; stroke: black;"></polyline></g></g><g><g><polyline points="2580,100 2622,100 2664,100 " style="fill: none; stroke: black;"></polyline></g></g><g><g><polyline points="2684,100 2726,100 2768,100 " style="fill: none; stroke: black;"></polyline></g></g><g><g><polyline points="2788,100 2830,100 2872,100 " style="fill: none; stroke: black;"></polyline></g></g><g><g><polyline points="2892,100 2934,100 2976,100 " style="fill: none; stroke: black;"></polyline></g></g><g><g><polyline points="2996,100 3038,100 3080,100 " style="fill: none; stroke: black;"></polyline></g></g><g></g><g><g transform="translate(0, 50)"><path d="M 0 0 L 20 0 V 100 L 0 100 V 0 z" style="fill: url(&quot;#muster1&quot;); stroke: grey; stroke-width: 4; stroke-linejoin: round;"></path><g></g><text text-anchor="middle" x="10" y="117" font-size="12">64</text><text text-anchor="middle" x="10" y="134" font-size="12">Conv2D</text></g></g><g><g transform="translate(104, 50)"><path d="M 0 0 L 20 0 V 100 L 0 100 V 0 z" style="fill: url(&quot;#muster2&quot;); stroke: grey; stroke-width: 4; stroke-linejoin: round;"></path><g></g><text text-anchor="middle" x="10" y="117" font-size="12">64</text><text text-anchor="middle" x="10" y="134" font-size="12">BatchNormalization</text></g></g><g><g transform="translate(208, 50)"><path d="M 0 0 L 20 0 V 100 L 0 100 V 0 z" style="fill: url(&quot;#muster1&quot;); stroke: grey; stroke-width: 4; stroke-linejoin: round;"></path><g></g><text text-anchor="middle" x="10" y="117" font-size="12">64</text><text text-anchor="middle" x="10" y="134" font-size="12">Conv2D</text></g></g><g><g transform="translate(312, 50)"><path d="M 0 0 L 20 0 V 100 L 0 100 V 0 z" style="fill: url(&quot;#muster2&quot;); stroke: grey; stroke-width: 4; stroke-linejoin: round;"></path><g></g><text text-anchor="middle" x="10" y="117" font-size="12">64</text><text text-anchor="middle" x="10" y="134" font-size="12">BatchNormalization</text></g></g><g><g transform="translate(416, 50)"><path d="M 0 0 L 20 20 V 80 L 0 100 V 0 z" style="fill: url(&quot;#muster3&quot;); stroke: grey; stroke-width: 4; stroke-linejoin: round;"></path><g></g><text text-anchor="middle" x="10" y="117" font-size="12">64</text><text text-anchor="middle" x="10" y="134" font-size="12">MaxPooling2D</text></g></g><g><g transform="translate(520, 50)"><path d="M 0 20 L 20 20 V 80 L 0 80 V 20 z" style="fill: url(&quot;#muster4&quot;); stroke: grey; stroke-width: 4; stroke-linejoin: round;"></path><g></g><text text-anchor="middle" x="10" y="97" font-size="12">64</text><text text-anchor="middle" x="10" y="114" font-size="12">Dropout</text></g></g><g><g transform="translate(624, 50)"><path d="M 0 20 L 40 20 V 80 L 0 80 V 20 z" style="fill: url(&quot;#muster1&quot;); stroke: grey; stroke-width: 4; stroke-linejoin: round;"></path><g></g><text text-anchor="middle" x="20" y="97" font-size="12">128</text><text text-anchor="middle" x="20" y="114" font-size="12">Conv2D</text></g></g><g><g transform="translate(748, 50)"><path d="M 0 20 L 40 20 V 80 L 0 80 V 20 z" style="fill: url(&quot;#muster2&quot;); stroke: grey; stroke-width: 4; stroke-linejoin: round;"></path><g></g><text text-anchor="middle" x="20" y="97" font-size="12">128</text><text text-anchor="middle" x="20" y="114" font-size="12">BatchNormalization</text></g></g><g><g transform="translate(872, 50)"><path d="M 0 20 L 40 20 V 80 L 0 80 V 20 z" style="fill: url(&quot;#muster1&quot;); stroke: grey; stroke-width: 4; stroke-linejoin: round;"></path><g></g><text text-anchor="middle" x="20" y="97" font-size="12">128</text><text text-anchor="middle" x="20" y="114" font-size="12">Conv2D</text></g></g><g><g transform="translate(996, 50)"><path d="M 0 20 L 40 20 V 80 L 0 80 V 20 z" style="fill: url(&quot;#muster2&quot;); stroke: grey; stroke-width: 4; stroke-linejoin: round;"></path><g></g><text text-anchor="middle" x="20" y="97" font-size="12">128</text><text text-anchor="middle" x="20" y="114" font-size="12">BatchNormalization</text></g></g><g><g transform="translate(1120, 50)"><path d="M 0 20 L 40 30 V 70 L 0 80 V 20 z" style="fill: url(&quot;#muster3&quot;); stroke: grey; stroke-width: 4; stroke-linejoin: round;"></path><g></g><text text-anchor="middle" x="20" y="97" font-size="12">128</text><text text-anchor="middle" x="20" y="114" font-size="12">MaxPooling2D</text></g></g><g><g transform="translate(1244, 50)"><path d="M 0 30 L 40 30 V 70 L 0 70 V 30 z" style="fill: url(&quot;#muster4&quot;); stroke: grey; stroke-width: 4; stroke-linejoin: round;"></path><g></g><text text-anchor="middle" x="20" y="87" font-size="12">128</text><text text-anchor="middle" x="20" y="104" font-size="12">Dropout</text></g></g><g><g transform="translate(1368, 50)"><path d="M 0 30 L 80 30 V 70 L 0 70 V 30 z" style="fill: url(&quot;#muster1&quot;); stroke: grey; stroke-width: 4; stroke-linejoin: round;"></path><g></g><text text-anchor="middle" x="40" y="87" font-size="12">256</text><text text-anchor="middle" x="40" y="104" font-size="12">Conv2D</text></g></g><g><g transform="translate(1532, 50)"><path d="M 0 30 L 80 30 V 70 L 0 70 V 30 z" style="fill: url(&quot;#muster2&quot;); stroke: grey; stroke-width: 4; stroke-linejoin: round;"></path><g></g><text text-anchor="middle" x="40" y="87" font-size="12">256</text><text text-anchor="middle" x="40" y="104" font-size="12">BatchNormalization</text></g></g><g><g transform="translate(1696, 50)"><path d="M 0 30 L 80 30 V 70 L 0 70 V 30 z" style="fill: url(&quot;#muster1&quot;); stroke: grey; stroke-width: 4; stroke-linejoin: round;"></path><g></g><text text-anchor="middle" x="40" y="87" font-size="12">256</text><text text-anchor="middle" x="40" y="104" font-size="12">Conv2D</text></g></g><g><g transform="translate(1860, 50)"><path d="M 0 30 L 80 30 V 70 L 0 70 V 30 z" style="fill: url(&quot;#muster2&quot;); stroke: grey; stroke-width: 4; stroke-linejoin: round;"></path><g></g><text text-anchor="middle" x="40" y="87" font-size="12">256</text><text text-anchor="middle" x="40" y="104" font-size="12">BatchNormalization</text></g></g><g><g transform="translate(2024, 50)"><path d="M 0 30 L 80 35 V 65 L 0 70 V 30 z" style="fill: url(&quot;#muster3&quot;); stroke: grey; stroke-width: 4; stroke-linejoin: round;"></path><g></g><text text-anchor="middle" x="40" y="87" font-size="12">256</text><text text-anchor="middle" x="40" y="104" font-size="12">MaxPooling2D</text></g></g><g><g transform="translate(2188, 50)"><path d="M 0 35 L 80 35 V 65 L 0 65 V 35 z" style="fill: url(&quot;#muster4&quot;); stroke: grey; stroke-width: 4; stroke-linejoin: round;"></path><g></g><text text-anchor="middle" x="40" y="82" font-size="12">256</text><text text-anchor="middle" x="40" y="99" font-size="12">Dropout</text></g></g><g><g transform="translate(2352, 50)"><path d="M 0 0 L 20 0 V 100 L 0 100 V 0 z" style="fill: url(&quot;#muster5&quot;); stroke: grey; stroke-width: 4; stroke-linejoin: round;"></path><g></g><text text-anchor="middle" x="10" y="117" font-size="12">4096</text><text text-anchor="middle" x="10" y="134" font-size="12">Flatten</text></g></g><g><g transform="translate(2456, 50)"><path d="M 0 0 L 20 0 V 100 L 0 100 V 0 z" style="fill: url(&quot;#muster6&quot;); stroke: grey; stroke-width: 4; stroke-linejoin: round;"></path><g></g><text text-anchor="middle" x="10" y="117" font-size="12">512</text><text text-anchor="middle" x="10" y="134" font-size="12">Dense</text></g></g><g><g transform="translate(2560, 50)"><path d="M 0 0 L 20 0 V 100 L 0 100 V 0 z" style="fill: url(&quot;#muster2&quot;); stroke: grey; stroke-width: 4; stroke-linejoin: round;"></path><g></g><text text-anchor="middle" x="10" y="117" font-size="12">512</text><text text-anchor="middle" x="10" y="134" font-size="12">BatchNormalization</text></g></g><g><g transform="translate(2664, 50)"><path d="M 0 0 L 20 0 V 100 L 0 100 V 0 z" style="fill: url(&quot;#muster4&quot;); stroke: grey; stroke-width: 4; stroke-linejoin: round;"></path><g></g><text text-anchor="middle" x="10" y="117" font-size="12">512</text><text text-anchor="middle" x="10" y="134" font-size="12">Dropout</text></g></g><g><g transform="translate(2768, 50)"><path d="M 0 17.84860557768924 L 20 17.84860557768924 V 82.15139442231076 L 0 82.15139442231076 V 17.84860557768924 z" style="fill: url(&quot;#muster6&quot;); stroke: grey; stroke-width: 4; stroke-linejoin: round;"></path><g></g><text text-anchor="middle" x="10" y="99.15139442231076" font-size="12">256</text><text text-anchor="middle" x="10" y="116.15139442231076" font-size="12">Dense</text></g></g><g><g transform="translate(2872, 50)"><path d="M 0 17.84860557768924 L 20 17.84860557768924 V 82.15139442231076 L 0 82.15139442231076 V 17.84860557768924 z" style="fill: url(&quot;#muster2&quot;); stroke: grey; stroke-width: 4; stroke-linejoin: round;"></path><g></g><text text-anchor="middle" x="10" y="99.15139442231076" font-size="12">256</text><text text-anchor="middle" x="10" y="116.15139442231076" font-size="12">BatchNormalization</text></g></g><g><g transform="translate(2976, 50)"><path d="M 0 17.84860557768924 L 20 17.84860557768924 V 82.15139442231076 L 0 82.15139442231076 V 17.84860557768924 z" style="fill: url(&quot;#muster4&quot;); stroke: grey; stroke-width: 4; stroke-linejoin: round;"></path><g></g><text text-anchor="middle" x="10" y="99.15139442231076" font-size="12">256</text><text text-anchor="middle" x="10" y="116.15139442231076" font-size="12">Dropout</text></g></g><g><g transform="translate(3080, 50)"><path d="M 0 35 L 20 35 V 65 L 0 65 V 35 z" style="fill: url(&quot;#muster6&quot;); stroke: grey; stroke-width: 4; stroke-linejoin: round;"></path><g></g><text text-anchor="middle" x="10" y="82" font-size="12">10</text><text text-anchor="middle" x="10" y="99" font-size="12">Dense</text></g></g></g></g></svg>