<svg version='1.1' baseProfile='full' xmlns='http://www.w3.org/2000/svg' width='695.260162034956' height='56.880947809983425'><pattern id="muster1" x="0" y="0" width="8" height="8" patternUnits="userSpaceOnUse"><path d="M0 0L8 8ZM8 0L0 8Z" stroke-width="0.5" stroke="black"></path></pattern><pattern id="muster2" x="10" y="10" width="20" height="20" patternUnits="userSpaceOnUse"><rect width="10" height="10"></rect><rect x="10" y="10" width="10" height="10"></rect></pattern><pattern id="muster3" x="0" y="0" width="10" height="10" patternUnits="userSpaceOnUse"><circle cx="5" cy="5" r="5"></circle></pattern><pattern id="muster4" x="10" y="10" width="10" height="10" patternTransform="scale(1,2) rotate(45)" patternUnits="userSpaceOnUse"><rect width="5" height="5"></rect><rect x="5" y="5" width="5" height="5"></rect></pattern><pattern id="muster5" x="10" y="10" width="20" height="20" patternUnits="userSpaceOnUse"><circle cx="10" cy="10" r="5"></circle></pattern><pattern id="muster6" x="0" y="0" width="10" height="10" patternUnits="userSpaceOnUse"><path d="M-1,1 l2,-2 M0,10 l10,-10 M9,11 l2,-2" stroke="black" stroke-width="1"></path></pattern><pattern id="muster7" x="0" y="0" width="10" height="10" patternUnits="userSpaceOnUse"><path d="M-1,1 l2,-2 M0,10 l10,-10 M9,11 l2,-2" stroke="black" stroke-width="8"></path></pattern><pattern id="muster8" x="0" y="0" width="10" height="10" patternUnits="userSpaceOnUse"><path d="M-1,1 l2,-2 M0,10 l10,-10 M9,11 l2,-2" stroke="black" stroke-width="3"></path></pattern><pattern id="muster9" x="0" y="0" width="10" height="10" patternUnits="userSpaceOnUse"><rect x="0" y="0" width="10" height="1"></rect></pattern><pattern id="muster10" x="0" y="0" width="10" height="10" patternUnits="userSpaceOnUse"><rect x="0" y="0" width="10" height="9"></rect></pattern><pattern id="muster11" x="0" y="0" width="10" height="10" patternUnits="userSpaceOnUse"><rect x="0" y="0" width="1" height="10"></rect></pattern><pattern id="muster12" x="0" y="0" width="10" height="10" patternUnits="userSpaceOnUse"><rect x="0" y="0" width="9" height="10"></rect></pattern><g transform='translate(25, 5)'><g transform='scale(0.9203621655947667) translate(13.375, 0)'><g><text text-anchor="middle" x="15" y="47" style="fill: black;">Conv2D</text><rect x="10" y="0" width="10" height="30" style="fill: url(&quot;#muster1&quot;); stroke: grey; stroke-linejoin: round; stroke-width: 2;"></rect></g><g><text text-anchor="middle" x="145" y="47" style="fill: black;">BatchNormalization</text><rect x="140" y="0" width="10" height="30" style="fill: url(&quot;#muster2&quot;); stroke: grey; stroke-linejoin: round; stroke-width: 2;"></rect></g><g><text text-anchor="middle" x="275" y="47" style="fill: black;">MaxPooling2D</text><rect x="270" y="0" width="10" height="30" style="fill: url(&quot;#muster3&quot;); stroke: grey; stroke-linejoin: round; stroke-width: 2;"></rect></g><g><text text-anchor="middle" x="405" y="47" style="fill: black;">Dropout</text><rect x="400" y="0" width="10" height="30" style="fill: url(&quot;#muster4&quot;); stroke: grey; stroke-linejoin: round; stroke-width: 2;"></rect></g><g><text text-anchor="middle" x="535" y="47" style="fill: black;">Flatten</text><rect x="530" y="0" width="10" height="30" style="fill: url(&quot;#muster5&quot;); stroke: url(&quot;#muster5&quot;); stroke-linejoin: round; stroke-width: 2;"></rect></g><g><text text-anchor="middle" x="665" y="47" style="fill: black;">Dense</text><rect x="660" y="0" width="10" height="30" style="fill: url(&quot;#muster6&quot;); stroke: url(&quot;#muster6&quot;); stroke-linejoin: round; stroke-width: 2;"></rect></g></g></g></svg>